# xmcd
#
# Track frame offsets:
#	150
#	18825
#	53025
#	75750
#	95325
#	109725
#	130200
#	155400
#	168825
#	183000
#	221325
#	238050
#
# Disc length: 3671 seconds
#
# Revision: 0
# Processed by: cddbd v1.5.2PL0 Copyright (c) Steve Scherf et al.
# Submitted via: EZCDAudioConverter 7.0.8.1
#
DISCID=830e550c
DTITLE=Plattsatt - Live ... dat woret - CD2
DYEAR=1900
DGENRE=Blues
TTITLE0=Jlabbach-Blues
TTITLE1=Visittekaat
TTITLE2=Vuuhle Remmel
TTITLE3=Rönk öm de Uhr
TTITLE4=Stromuutfall
TTITLE5=Immer-Ich-Blues
TTITLE6=Schlimme Mondaach
TTITLE7=Op de 61
TTITLE8=Hüür op ze kloppe
TTITLE9=Schlaffe Samsdach
TTITLE10=Waat net zu lang
TTITLE11=Ooh-Whije-Baby
EXTD=
EXTT0=
EXTT1=
EXTT2=
EXTT3=
EXTT4=
EXTT5=
EXTT6=
EXTT7=
EXTT8=
EXTT9=
EXTT10=
EXTT11=
PLAYORDER=
